# xmcd
#
# Track frame offsets:
#	150
#	25980
#	47973
#	72132
#	92162
#	113816
#	134973
#	155980
#	175423
#	196372
#	222167
#	242889
#
# Disc length: 3513 seconds
#
# Revision: 3276833
# Processed by: cddbd v1.5.2PL0 Copyright (c) Steve Scherf et al.
# Submitted via: EZCDAudioConverter 8.0.2.1
#
DISCID=bc0db70c
DTITLE=Various Artist - Top Hits 46. st. Lam Phương. Cho Em Quên Tuổi Ngọc
DYEAR=2012
DGENRE=Contemporary Pop
TTITLE0=Lam Anh - Em Quên Tuổi Ngọc
TTITLE1=Ngọc Anh - Em đi rồi
TTITLE2=Ngọc Hạ - Thu sầu
TTITLE3=Trần Thái Hòa - Xót xa
TTITLE4=Thu Phương - Bài thơ không đoạn kết
TTITLE5=The Son - Như giấc chiêm bao
TTITLE6=Hồ Lệ Thu - Tình nghĩa đôi ta chỉ thế thôi
TTITLE7=Diễm Sương - Biển tình
TTITLE8=Khánh Ly - Kiếp tha hương
TTITLE9=Khánh Hà - Lạy trời con được bình yên
TTITLE10=Trần Thái Hòa - Một mình
TTITLE11=Ý Lan - Hạnh phúc mang theo
EXTD=
EXTT0=
EXTT1=
EXTT2=
EXTT3=
EXTT4=
EXTT5=
EXTT6=
EXTT7=
EXTT8=
EXTT9=
EXTT10=
EXTT11=
PLAYORDER=
